REM DIRINDEX 1\2,1\3
REM DIRNAME cjc039,folder01,folder02
TITLE ""
FILE "1481-1500.mp3" MP3
  TRACK 01 AUDIO
    TITLE "0:"
    INDEX 01 00:00:00
  TRACK 02 AUDIO
    TITLE "2:cjc039_1961"
    INDEX 01 00:00:23
  TRACK 03 AUDIO
    TITLE "0:"
    INDEX 01 00:01:32
  TRACK 04 AUDIO
    TITLE "3:cjc039_1962"
    INDEX 01 00:02:14
  TRACK 05 AUDIO
    TITLE "0:"
    INDEX 01 00:05:24
  TRACK 06 AUDIO
    TITLE "2:cjc039_1963"
    INDEX 01 00:07:05
  TRACK 07 AUDIO
    TITLE "0:"
    INDEX 01 00:08:34
  TRACK 08 AUDIO
    TITLE "3:cjc039_1964"
    INDEX 01 00:09:10
  TRACK 09 AUDIO
    TITLE "0:"
    INDEX 01 00:13:41
  TRACK 10 AUDIO
    TITLE "2:cjc039_1965"
    INDEX 01 00:15:19
  TRACK 11 AUDIO
    TITLE "0:"
    INDEX 01 00:16:32
  TRACK 12 AUDIO
    TITLE "3:cjc039_1966"
    INDEX 01 00:17:12
  TRACK 13 AUDIO
    TITLE "0:"
    INDEX 01 00:20:02
  TRACK 14 AUDIO
    TITLE "2:cjc039_1967"
    INDEX 01 00:21:58
  TRACK 15 AUDIO
    TITLE "0:"
    INDEX 01 00:23:14
  TRACK 16 AUDIO
    TITLE "3:cjc039_1968"
    INDEX 01 00:23:61
  TRACK 17 AUDIO
    TITLE "0:"
    INDEX 01 00:26:54
  TRACK 18 AUDIO
    TITLE "2:cjc039_1969"
    INDEX 01 00:28:27
  TRACK 19 AUDIO
    TITLE "0:"
    INDEX 01 00:29:40
  TRACK 20 AUDIO
    TITLE "3:cjc039_1970"
    INDEX 01 00:30:14
  TRACK 21 AUDIO
    TITLE "0:"
    INDEX 01 00:33:38
  TRACK 22 AUDIO
    TITLE "2:cjc039_1971"
    INDEX 01 00:35:14
  TRACK 23 AUDIO
    TITLE "0:"
    INDEX 01 00:36:36
  TRACK 24 AUDIO
    TITLE "3:cjc039_1972"
    INDEX 01 00:37:08
  TRACK 25 AUDIO
    TITLE "0:"
    INDEX 01 00:41:38
  TRACK 26 AUDIO
    TITLE "2:cjc039_1973"
    INDEX 01 00:43:17
  TRACK 27 AUDIO
    TITLE "0:"
    INDEX 01 00:44:24
  TRACK 28 AUDIO
    TITLE "3:cjc039_1974"
    INDEX 01 00:45:02
  TRACK 29 AUDIO
    TITLE "0:"
    INDEX 01 00:47:48
  TRACK 30 AUDIO
    TITLE "2:cjc039_1975"
    INDEX 01 00:49:27
  TRACK 31 AUDIO
    TITLE "0:"
    INDEX 01 00:50:60
  TRACK 32 AUDIO
    TITLE "3:cjc039_1976"
    INDEX 01 00:51:40
  TRACK 33 AUDIO
    TITLE "0:"
    INDEX 01 00:55:38
  TRACK 34 AUDIO
    TITLE "2:cjc039_1977"
    INDEX 01 00:57:15
  TRACK 35 AUDIO
    TITLE "0:"
    INDEX 01 00:58:32
  TRACK 36 AUDIO
    TITLE "3:cjc039_1978"
    INDEX 01 00:59:10
  TRACK 37 AUDIO
    TITLE "0:"
    INDEX 01 01:03:39
  TRACK 38 AUDIO
    TITLE "2:cjc039_1979"
    INDEX 01 01:05:19
  TRACK 39 AUDIO
    TITLE "0:"
    INDEX 01 01:06:59
  TRACK 40 AUDIO
    TITLE "3:cjc039_1980"
    INDEX 01 01:07:37
  TRACK 41 AUDIO
    TITLE "0:"
    INDEX 01 01:12:15
  TRACK 42 AUDIO
    TITLE "2:cjc039_1981"
    INDEX 01 01:13:65
  TRACK 43 AUDIO
    TITLE "0:"
    INDEX 01 01:15:01
  TRACK 44 AUDIO
    TITLE "3:cjc039_1982"
    INDEX 01 01:15:54
  TRACK 45 AUDIO
    TITLE "0:"
    INDEX 01 01:18:60
  TRACK 46 AUDIO
    TITLE "2:cjc039_1983"
    INDEX 01 01:20:36
  TRACK 47 AUDIO
    TITLE "0:"
    INDEX 01 01:21:53
  TRACK 48 AUDIO
    TITLE "3:cjc039_1984"
    INDEX 01 01:22:27
  TRACK 49 AUDIO
    TITLE "0:"
    INDEX 01 01:26:68
  TRACK 50 AUDIO
    TITLE "2:cjc039_1985"
    INDEX 01 01:28:47
  TRACK 51 AUDIO
    TITLE "0:"
    INDEX 01 01:29:52
  TRACK 52 AUDIO
    TITLE "3:cjc039_1986"
    INDEX 01 01:30:26
  TRACK 53 AUDIO
    TITLE "0:"
    INDEX 01 01:33:66
  TRACK 54 AUDIO
    TITLE "2:cjc039_1987"
    INDEX 01 01:35:45
  TRACK 55 AUDIO
    TITLE "0:"
    INDEX 01 01:37:05
  TRACK 56 AUDIO
    TITLE "3:cjc039_1988"
    INDEX 01 01:37:60
  TRACK 57 AUDIO
    TITLE "0:"
    INDEX 01 01:42:06
  TRACK 58 AUDIO
    TITLE "2:cjc039_1989"
    INDEX 01 01:43:58
  TRACK 59 AUDIO
    TITLE "0:"
    INDEX 01 01:44:70
  TRACK 60 AUDIO
    TITLE "3:cjc039_1990"
    INDEX 01 01:45:47
  TRACK 61 AUDIO
    TITLE "0:"
    INDEX 01 01:49:63
  TRACK 62 AUDIO
    TITLE "2:cjc039_1991"
    INDEX 01 01:51:40
  TRACK 63 AUDIO
    TITLE "0:"
    INDEX 01 01:53:21
  TRACK 64 AUDIO
    TITLE "3:cjc039_1992"
    INDEX 01 01:53:70
  TRACK 65 AUDIO
    TITLE "0:"
    INDEX 01 01:58:48
  TRACK 66 AUDIO
    TITLE "2:cjc039_1993"
    INDEX 01 02:00:27
  TRACK 67 AUDIO
    TITLE "0:"
    INDEX 01 02:01:39
  TRACK 68 AUDIO
    TITLE "3:cjc039_1994"
    INDEX 01 02:02:18
  TRACK 69 AUDIO
    TITLE "0:"
    INDEX 01 02:05:27
  TRACK 70 AUDIO
    TITLE "2:cjc039_1995"
    INDEX 01 02:07:08
  TRACK 71 AUDIO
    TITLE "0:"
    INDEX 01 02:08:41
  TRACK 72 AUDIO
    TITLE "3:cjc039_1996"
    INDEX 01 02:09:21
  TRACK 73 AUDIO
    TITLE "0:"
    INDEX 01 02:13:07
  TRACK 74 AUDIO
    TITLE "2:cjc039_1997"
    INDEX 01 02:14:57
  TRACK 75 AUDIO
    TITLE "0:"
    INDEX 01 02:15:72
  TRACK 76 AUDIO
    TITLE "3:cjc039_1998"
    INDEX 01 02:16:50
  TRACK 77 AUDIO
    TITLE "0:"
    INDEX 01 02:20:03
  TRACK 78 AUDIO
    TITLE "2:cjc039_1999"
    INDEX 01 02:21:55
  TRACK 79 AUDIO
    TITLE "0:"
    INDEX 01 02:23:17
  TRACK 80 AUDIO
    TITLE "3:cjc039_2000"
    INDEX 01 02:23:72
  TRACK 81 AUDIO
    TITLE "0:"
    INDEX 01 02:28:49
